<?xml version="1.0" encoding="utf-8"?>
<!-- Svg Vector Icons : http://www.onlinewebfonts.com/icon -->
<!DOCTYPE svg PUBLIC "-//W3C//DTD SVG 1.1//EN" "http://www.w3.org/Graphics/SVG/1.1/DTD/svg11.dtd">
<svg version="1.1" xmlns="http://www.w3.org/2000/svg" xmlns:xlink="http://www.w3.org/1999/xlink" x="0px" y="0px" viewBox="0 0 1000 1000" enable-background="new 0 0 1000 1000" xml:space="preserve"> 
<metadata> Svg Vector Icons : http://www.onlinewebfonts.com/icon </metadata>
<g><path d="M499.9,10C229.7,10,10,229.8,10,499.9C10,770.3,229.8,990,499.9,990C770.1,990,990,770.2,990,499.9C989.9,229.8,770.1,10,499.9,10 M757.2,385.9L448.4,694.6c-7.4,7.4-19.5,7.4-26.9,0l-40.4-40.5l-133.9-134c-7.5-7.4-7.5-19.4,0-26.9l40.4-40.4c7.4-7.5,19.4-7.5,26.7,0L435,573.3l254.8-254.8c7.4-7.3,19.4-7.3,26.9,0l40.5,40.5C764.6,366.4,764.6,378.4,757.2,385.9"/></g>
</svg>