<svg xmlns="http://www.w3.org/2000/svg" viewBox="0 0 457 297"><g id="Layer_2" data-name="Layer 2"><g id="Layer_1-2" data-name="Layer 1"><path d="M457,210.5a86.5,86.5,0,0,1-79,86.17q-3.71.33-7.5.33H96A96,96,0,0,1,44.89,119.73a143,143,0,0,1,241.9-78.18,70.54,70.54,0,0,1,97.45,83.54A86.52,86.52,0,0,1,457,210.5Z" style="fill:#3fa9f5"/><path d="M80.41,134.91A173.56,173.56,0,0,1,106.13,133c17.38,0,29.75,4,38,11.68s13.21,18.5,13.21,33.65-4.73,27.81-13.49,36.43-23.22,13.49-41.43,13.49a193.73,193.73,0,0,1-22-1.12ZM92.5,217.78a77.24,77.24,0,0,0,12.24.69c25.86,0,39.9-14.46,39.9-39.76.14-22.11-12.37-36.15-37.95-36.15a68.49,68.49,0,0,0-14.19,1.25Z" style="fill:#fff"/><path d="M209.85,227.37l-1-8.48h-.41a25.09,25.09,0,0,1-20.58,10c-13.63,0-20.58-9.59-20.58-19.33,0-16.26,14.46-25.16,40.46-25v-1.39c0-5.56-1.53-15.58-15.29-15.58a33.5,33.5,0,0,0-17.52,5l-2.78-8.06c5.56-3.62,13.62-6,22.1-6,20.58,0,25.59,14,25.59,27.53v25.16A94.21,94.21,0,0,0,221,227.37ZM208,193c-13.35-.28-28.5,2.08-28.5,15.15,0,7.93,5.28,11.68,11.54,11.68a16.73,16.73,0,0,0,16.26-11.26,12.67,12.67,0,0,0,.7-3.89Z" style="fill:#fff"/><path d="M276.86,227.37l-1-8.48h-.41a25.09,25.09,0,0,1-20.58,10c-13.63,0-20.58-9.59-20.58-19.33,0-16.26,14.46-25.16,40.46-25v-1.39c0-5.56-1.53-15.58-15.29-15.58a33.52,33.52,0,0,0-17.52,5l-2.78-8.06c5.56-3.62,13.62-6,22.11-6,20.57,0,25.58,14,25.58,27.53v25.16A95.23,95.23,0,0,0,288,227.37ZM275.05,193c-13.35-.28-28.5,2.08-28.5,15.15,0,7.93,5.28,11.68,11.54,11.68a16.73,16.73,0,0,0,16.26-11.26,12.67,12.67,0,0,0,.7-3.89Z" style="fill:#fff"/><path d="M305.36,212.63a42.81,42.81,0,0,0,21.69,6.12c12.37,0,19.6-6.53,19.6-16,0-8.76-5-13.76-17.66-18.63-15.29-5.42-24.75-13.35-24.75-26.56,0-14.59,12.1-25.44,30.31-25.44,9.6,0,16.55,2.22,20.72,4.59l-3.34,9.87a37.28,37.28,0,0,0-17.79-4.45c-12.79,0-17.66,7.65-17.66,14,0,8.76,5.7,13.07,18.63,18.08C351,180.38,359,188,359,201.79c0,14.46-10.71,27-32.82,27-9,0-18.91-2.64-23.91-6Z" style="fill:#fff"/></g></g></svg>