<svg xmlns="http://www.w3.org/2000/svg" width="209.394" height="211.306" viewBox="0 0 209.394 211.306">
  <g id="Group_6" data-name="Group 6" transform="translate(-701.303 -289.39)">
    <g id="Group_5" data-name="Group 5">
      <g id="Group_4" data-name="Group 4">
        <g id="Group_3" data-name="Group 3">
          <g id="Group_2" data-name="Group 2">
            <g id="Group_1" data-name="Group 1">
              <g id="macos-seeklogo.com" transform="translate(585.303 337.303)">
                <path id="Path_1" data-name="Path 1" d="M209.394,209.394h0Z" transform="translate(116 -46)" fill="#141414"/>
                <path id="Path_4" data-name="Path 4" d="M0,0H123.9V123.9H0Z" transform="translate(158.748 -3.252)" fill="#141414"/>
                <path id="Path_3" data-name="Path 3" d="M131.439,85.656V83.932l-5.359.368a6.65,6.65,0,0,0-3.423.963,2.831,2.831,0,0,0-.01,4.547,4.98,4.98,0,0,0,3.045.842,6.807,6.807,0,0,0,2.274-.373,5.656,5.656,0,0,0,1.83-1.038,4.655,4.655,0,0,0,1.2-1.573A4.593,4.593,0,0,0,131.439,85.656ZM120.853,16.25C62.477,16.25,16.2,62.477,16.2,120.9c.05,58.376,46.277,104.653,104.653,104.653S225.506,179.279,225.506,120.9,179.229,16.25,120.853,16.25Zm20.306,62.006a10.379,10.379,0,0,1,2.092-3.564,9.158,9.158,0,0,1,3.257-2.284,11.719,11.719,0,0,1,8.051-.171,9.2,9.2,0,0,1,2.914,1.694,8.089,8.089,0,0,1,1.931,2.485,8.354,8.354,0,0,1,.852,3h-4.2a5.4,5.4,0,0,0-.57-1.623,4.438,4.438,0,0,0-1.074-1.3,5.045,5.045,0,0,0-1.573-.862,6.136,6.136,0,0,0-2.042-.313,5.281,5.281,0,0,0-4.285,2.062,7.207,7.207,0,0,0-1.195,2.395,10.719,10.719,0,0,0-.428,3.136,10.924,10.924,0,0,0,.428,3.2,6.9,6.9,0,0,0,1.21,2.384,5.226,5.226,0,0,0,1.88,1.492,5.624,5.624,0,0,0,2.415.519,5.728,5.728,0,0,0,3.514-1.013,4.736,4.736,0,0,0,1.764-2.964h4.2a8.361,8.361,0,0,1-.953,3.146,8.1,8.1,0,0,1-2,2.425,8.907,8.907,0,0,1-2.894,1.553,11.7,11.7,0,0,1-3.655.549,11.2,11.2,0,0,1-4.265-.781,9.161,9.161,0,0,1-3.272-2.243,10.046,10.046,0,0,1-2.1-3.554,14.056,14.056,0,0,1-.741-4.713,13.6,13.6,0,0,1,.731-4.653ZM81.412,71.894h4.2v3.735H85.7A6.214,6.214,0,0,1,86.7,73.966a6.291,6.291,0,0,1,1.432-1.25,6.551,6.551,0,0,1,1.785-.791,7.608,7.608,0,0,1,2.052-.272,6.684,6.684,0,0,1,3.907,1.1,5.924,5.924,0,0,1,2.263,3.176h.106a6.615,6.615,0,0,1,1.114-1.785,7.136,7.136,0,0,1,1.583-1.351,7.363,7.363,0,0,1,1.961-.852,8.369,8.369,0,0,1,2.243-.292,8.024,8.024,0,0,1,2.954.519,6.537,6.537,0,0,1,2.274,1.462,6.37,6.37,0,0,1,1.452,2.294,8.443,8.443,0,0,1,.509,2.994V93.943h-4.386V79.969a4.719,4.719,0,0,0-1.119-3.362,4.156,4.156,0,0,0-3.186-1.19,4.761,4.761,0,0,0-1.86.358,4.245,4.245,0,0,0-1.452,1,4.481,4.481,0,0,0-.953,1.532,5.326,5.326,0,0,0-.348,1.951V93.948H94.71V79.612a4.794,4.794,0,0,0-.3-1.724,3.706,3.706,0,0,0-.842-1.321,3.661,3.661,0,0,0-1.331-.842,4.972,4.972,0,0,0-1.759-.3,4.659,4.659,0,0,0-1.88.378,4.436,4.436,0,0,0-1.482,1.044,4.749,4.749,0,0,0-.963,1.583,5.9,5.9,0,0,0-.585,1.986v13.53H81.412V71.9ZM90.99,177.454c-19.277,0-31.376-13.4-31.376-34.784s12.1-34.824,31.376-34.824,31.335,13.45,31.335,34.824S110.277,177.454,90.99,177.454Zm35.7-83.561a8.779,8.779,0,0,1-2.183.272,9.246,9.246,0,0,1-3.015-.469,6.951,6.951,0,0,1-2.354-1.321,5.921,5.921,0,0,1-1.532-2.062,6.41,6.41,0,0,1-.549-2.692,5.365,5.365,0,0,1,2.163-4.537,11.538,11.538,0,0,1,6.266-1.9l5.948-.343v-1.7a3.541,3.541,0,0,0-1.21-2.9,5.266,5.266,0,0,0-3.423-.993,6.1,6.1,0,0,0-1.669.222,4.584,4.584,0,0,0-1.361.64,3.662,3.662,0,0,0-.973,1,3.565,3.565,0,0,0-.529,1.291h-4.124a5.856,5.856,0,0,1,.721-2.7,6.961,6.961,0,0,1,1.85-2.153,8.729,8.729,0,0,1,2.752-1.422,11.3,11.3,0,0,1,3.453-.509,12.108,12.108,0,0,1,3.645.509,8.291,8.291,0,0,1,2.793,1.452,6.464,6.464,0,0,1,1.785,2.274,6.893,6.893,0,0,1,.63,2.974V93.938h-4.2V90.263h-.106a6.624,6.624,0,0,1-1.185,1.613,7.609,7.609,0,0,1-1.623,1.23,8.165,8.165,0,0,1-1.971.781Zm27.746,83.561c-14.7,0-24.7-7.7-25.4-19.8h9.573c.746,6.911,7.426,11.494,16.575,11.494,8.777,0,15.083-4.577,15.083-10.828,0-5.414-3.831-8.686-12.7-10.929l-8.64-2.148c-12.421-3.08-18.067-8.731-18.067-18.027,0-11.433,9.991-19.378,24.238-19.378,13.913,0,23.623,7.985,24,19.469h-9.477c-.655-6.911-6.3-11.161-14.71-11.161-8.358,0-14.145,4.3-14.145,10.506,0,4.9,3.64,7.8,12.512,10.037l7.284,1.82c13.873,3.362,19.559,8.827,19.559,18.632-.005,12.512-9.9,20.306-25.689,20.306Zm-63.478-61c-13.208,0-21.475,10.133-21.475,26.234,0,16.061,8.262,26.194,21.475,26.194,13.167,0,21.475-10.133,21.475-26.194,0-16.132-8.267-26.214-21.435-26.214Z" transform="translate(99.887 -64.163)" fill="#efefef"/>
              </g>
            </g>
          </g>
        </g>
      </g>
    </g>
  </g>
</svg>
